Coordinates
version=1
nRows=11
nColumns=40
inDegrees=yes

Units are S.I. units (second, meters, Newtons, ...)
If the header above contains a line with 'inDegrees', this indicates whether rotational values are in degrees (yes) or radians (no).

endheader
time	pelvis_tilt	pelvis_list	pelvis_rotation	pelvis_tx	pelvis_ty	pelvis_tz	hip_flexion_r	hip_adduction_r	hip_rotation_r	knee_angle_r	knee_angle_r_beta	ankle_angle_r	subtalar_angle_r	mtp_angle_r	hip_flexion_l	hip_adduction_l	hip_rotation_l	knee_angle_l	knee_angle_l_beta	ankle_angle_l	subtalar_angle_l	mtp_angle_l	lumbar_extension	lumbar_bending	lumbar_rotation	arm_flex_r	arm_add_r	arm_rot_r	elbow_flex_r	pro_sup_r	wrist_flex_r	wrist_dev_r	arm_flex_l	arm_add_l	arm_rot_l	elbow_flex_l	pro_sup_l	wrist_flex_l	wrist_dev_l
      4.64000000	     -6.59366517	     -2.65502293	     -9.70450027	     -2.20940182	      0.93715367	      0.28880501	     23.59159471	      4.72675400	     -0.97449827	     42.31352943	      0.73851041	     22.88325665	      0.00000000	      0.00000000	     19.76271355	     -5.10733973	     -2.75915702	    114.97498329	      2.00669202	     10.72848526	      0.00000000	      0.00000000	    -32.03430812	      4.75265057	     16.93950229	      2.23293560	    -28.77445078	      0.89341342	     96.30426849	     87.76323308	      0.00000000	      0.00000000	     -7.58987116	    -27.41210846	     12.00987174	     88.00668742	      1.45804116	      0.00000000	      0.00000000
      4.64500000	     -6.97089609	     -2.24932679	     -9.90854459	     -2.18250704	      0.93582194	      0.29003528	     22.36630920	      4.25471674	     -0.42640653	     42.79130543	      0.74684917	     24.22448427	      0.00000000	      0.00000000	     23.36856832	     -5.11918448	     -2.28912407	    117.19404048	      2.04542187	     11.32951197	      0.00000000	      0.00000000	    -31.45538410	      4.09606046	     17.76054410	      4.47760159	    -28.08294842	      1.52006931	     96.87105872	     87.83172647	      0.00000000	      0.00000000	     -8.33855296	    -27.67045579	     11.81560000	     86.05303942	      1.46331534	      0.00000000	      0.00000000
      4.65000000	     -7.36255072	     -1.78465433	    -10.05625425	     -2.15521369	      0.93467884	      0.29111338	     21.00837020	      3.64261637	     -0.00245097	     42.97127452	      0.74999022	     25.32080492	      0.00000000	      0.00000000	     27.00826650	     -5.01930512	     -1.81637744	    119.02391976	      2.07735929	     11.78162941	      0.00000000	      0.00000000	    -30.80129760	      3.41224932	     18.40822832	      6.67788636	    -27.39128844	      2.21197791	     97.54422130	     87.85257911	      0.00000000	      0.00000000	     -9.28658773	    -27.95856607	     11.43210320	     84.38947526	      1.45578508	      0.00000000	      0.00000000
      4.65500000	     -7.72840267	     -1.27502200	    -10.13261217	     -2.12747090	      0.93368505	      0.29212841	     19.47649633	      2.91193522	      0.28678118	     42.85623918	      0.74798248	     26.16737507	      0.00000000	      0.00000000	     30.61232468	     -4.82298448	     -1.34588978	    120.48061748	      2.10278346	     12.14092388	      0.00000000	      0.00000000	    -30.09643764	      2.69723755	     18.89740454	      8.72847684	    -26.73225430	      2.95283336	     98.36533263	     87.87686428	      0.00000000	      0.00000000	    -10.48574032	    -28.32919309	     10.80335573	     83.12784039	      1.45086646	      0.00000000	      0.00000000
      4.66000000	     -8.07761071	     -0.71922462	    -10.13042275	     -2.09919703	      0.93288682	      0.29300017	     17.77393572	      2.05390417	      0.40950049	     42.42940855	      0.74053288	     26.65299853	      0.00000000	      0.00000000	     34.16071403	     -4.52139941	     -0.93336577	    121.53401929	      2.12116879	     12.39100476	      0.00000000	      0.00000000	    -29.33665527	      1.97084268	     19.20421433	     10.64947291	    -26.09564594	      3.75082599	     99.33650940	     87.87722447	      0.00000000	      0.00000000	    -11.95394689	    -28.74059599	      9.94740797	     82.20405894	      1.43744992	      0.00000000	      0.00000000
      4.66500000	     -8.33299933	     -0.11324991	    -10.06335992	     -2.07057080	      0.93248180	      0.29371116	     15.83745157	      1.09003388	      0.45249783	     41.69455186	      0.72770721	     26.87470090	      0.00000000	      0.00000000	     37.55617207	     -4.06000738	     -0.56555349	    122.19277535	      2.13266625	     12.63054834	      0.00000000	      0.00000000	    -28.62316966	      1.19683915	     19.43157357	     12.39587790	    -25.45240991	      4.40839094	    100.42480694	     87.88903739	      0.00000000	      0.00000000	    -13.49594752	    -29.13415183	      8.99196963	     81.60235497	      1.40939765	      0.00000000	      0.00000000
      4.67000000	     -8.65624693	      0.52665119	     -9.87390004	     -2.04153783	      0.93197694	      0.29427450	     13.87171514	      0.04242149	      0.27113388	     40.74653924	      0.71116127	     26.57900097	      0.00000000	      0.00000000	     40.98840714	     -3.50286778	     -0.24475002	    122.52782373	      2.13851395	     12.77169859	      0.00000000	      0.00000000	    -27.78226637	      0.43152741	     19.35878531	     14.09227890	    -24.82939436	      5.29999913	    101.61343894	     87.83429218	      0.00000000	      0.00000000	    -15.55325155	    -29.58895851	      7.59401069	     81.63005415	      1.43040880	      0.00000000	      0.00000000
      4.67500000	     -8.81276521	      1.20258161	     -9.93030669	     -2.01210923	      0.93209931	      0.29536655	     11.60457153	     -0.95408912	      0.44611190	     39.43594798	      0.68828714	     26.04952351	      0.00000000	      0.00000000	     44.02260802	     -3.08380271	     -0.26489139	    122.42169860	      2.13666172	     12.97822093	      0.00000000	      0.00000000	    -27.06008555	     -0.53381552	     19.98039585	     15.06946663	    -24.34472848	      5.44224343	    103.27755138	     87.81983033	      0.00000000	      0.00000000	    -16.97089604	    -30.40617239	      7.24610131	     81.64869020	      1.45256695	      0.00000000	      0.00000000
      4.68000000	     -9.10086500	      1.97066482	     -9.33777298	     -1.98228335	      0.93188010	      0.29536979	      9.37841880	     -2.24973749	     -0.33224686	     38.01764877	      0.66353314	     24.95067567	      0.00000000	      0.00000000	     47.27972625	     -2.06551471	      0.01220071	    122.06654598	      2.13046313	     13.09652499	      0.00000000	      0.00000000	    -26.16828431	     -1.31288732	     19.00555545	     16.94944277	    -23.42583904	      6.75100511	    104.24228462	     87.72229787	      0.00000000	      0.00000000	    -20.02668628	    -30.57973287	      4.56406439	     82.65742976	      1.43584319	      0.00000000	      0.00000000
      4.68500000	     -9.29589274	      2.83282180	     -8.96104115	     -1.95217937	      0.93212186	      0.29579100	      7.01116038	     -3.54468052	     -0.82751201	     36.36911910	      0.63476087	     23.34558975	      0.00000000	      0.00000000	     50.21192530	     -1.13415358	     -0.09292420	    121.28583549	      2.11683717	     13.24432029	      0.00000000	      0.00000000	    -25.33235791	     -2.33081780	     18.73270557	     18.08661675	    -22.71512952	      7.30252382	    105.68822481	     87.68193706	      0.00000000	      0.00000000	    -22.37083205	    -31.14210075	      3.01796420	     83.60013747	      1.42934028	      0.00000000	      0.00000000
      4.69000000	     -9.49184638	      3.72149487	     -8.58930542	     -1.92179579	      0.93254419	      0.29629115	      4.59057799	     -4.81468069	     -1.30965176	     34.53114892	      0.60268224	     21.23771376	      0.00000000	      0.00000000	     52.97868565	     -0.20775155	     -0.35332374	    120.20378814	      2.09795188	     13.38610153	      0.00000000	      0.00000000	    -24.48411499	     -3.40380972	     18.46911143	     19.03747731	    -21.99066291	      7.78468019	    107.24647785	     87.64723516	      0.00000000	      0.00000000	    -24.79758216	    -31.71476588	      1.45510649	     84.74854990	      1.42298009	      0.00000000	      0.00000000
